<svg width="18" height="18" viewBox="0 0 18 18" fill="none" xmlns="http://www.w3.org/2000/svg">
<path d="M17.983 9.0011V17.0001C17.983 17.5523 17.5357 18 16.984 18H10.9893C10.4377 18 9.99041 17.5523 9.99041 17.0001C9.99041 13.39 12.1026 10.1143 15.3884 8.62601L16.5719 8.09032C17.2335 7.79113 17.983 8.27512 17.983 9.0011ZM13.3334 6.69115C15.1796 6.69115 16.6763 5.19298 16.6763 3.34503C16.6763 1.49707 15.1785 0 13.3334 0C11.4883 0 9.99041 1.49817 9.99041 3.34613C9.99041 5.19408 11.4872 6.69225 13.3334 6.69225V6.69115ZM6.99361 0H0.998931C0.447266 0 0 0.44769 0 0.999878V7.69983C0 12.1019 2.5748 16.0959 6.58151 17.9098C7.24307 18.209 7.99255 17.725 7.99255 16.999V0.999878C7.99255 0.44769 7.54528 0 6.99361 0Z" fill="url(#paint0_radial_2861_2333)"/>
<defs>
<radialGradient id="paint0_radial_2861_2333" cx="0" cy="0" r="1" gradientUnits="userSpaceOnUse" gradientTransform="translate(8.99148 9) scale(12.3015 12.3131)">
<stop stop-color="#052699"/>
<stop offset="1" stop-color="#126AF9"/>
</radialGradient>
</defs>
</svg>
