<svg width="154" height="18" viewBox="0 0 154 18" fill="none" xmlns="http://www.w3.org/2000/svg">
<g clip-path="url(#clip0_655_10640)">
<path d="M16.9976 9.00098V16.1112C16.9976 16.6021 16.5998 17 16.109 17H10.7761C10.2854 17 9.88747 16.6021 9.88747 16.1112C9.88747 12.9022 11.7664 9.99047 14.6895 8.66756L15.7424 8.1914C16.3309 7.92545 16.9976 8.35566 16.9976 9.00098ZM12.8614 6.94769C14.5038 6.94769 15.8353 5.61599 15.8353 3.97336C15.8353 2.33073 14.5028 1 12.8614 1C11.22 1 9.88747 2.3317 9.88747 3.97433C9.88747 5.61696 11.219 6.94867 12.8614 6.94867V6.94769ZM7.22152 1H1.88865C1.39789 1 1 1.39795 1 1.88878V7.84429C1 11.7573 3.29054 15.3075 6.85492 16.9198C7.44344 17.1858 8.11017 16.7556 8.11017 16.1102V1.88878C8.11017 1.39795 7.71228 1 7.22152 1Z" fill="white"/>
</g>
<path d="M101.872 13.9729V2.94144H104.572V13.9729H101.872Z" fill="white"/>
<path d="M92.6219 13.9729H89.8756L94.0876 2.94144H96.695L100.907 13.9729H98.1607L97.2813 11.6432H93.5013L92.6219 13.9729ZM95.3836 6.01172L94.2881 9.39058H96.479L95.3836 6.01172Z" fill="white"/>
<path d="M83.1123 14.158C81.6312 14.158 80.3043 13.51 79.6409 12.3374L81.3534 11.026C81.7237 11.6586 82.3409 12.1523 83.1432 12.1523C83.6677 12.1523 83.9763 11.9826 83.9763 11.7049C83.9763 11.2883 83.4209 11.1494 82.3409 10.7637C80.7826 10.2083 79.9032 9.5603 79.9032 8.29515C79.9032 6.70601 81.3997 5.84201 83.1894 5.84201C84.5317 5.84201 85.7043 6.50544 86.198 7.44658L84.5317 8.65001C84.2694 8.20258 83.8529 7.84772 83.1123 7.84772C82.7112 7.84772 82.3409 8.01744 82.3409 8.31058C82.3409 8.60372 82.8037 8.6963 83.9454 9.15915C85.1797 9.6683 86.414 10.0694 86.414 11.6432C86.414 13.0472 85.1026 14.158 83.1123 14.158Z" fill="white"/>
<path d="M78.8922 10.6403H73.8625C73.986 11.5352 74.8499 11.9209 75.7602 11.9209C76.6088 11.9209 77.2568 11.5506 77.6425 11.1803L79.0002 12.8774C77.9511 13.8186 76.8865 14.158 75.5597 14.158C72.8442 14.158 71.1008 12.3529 71.1008 10.0077C71.1008 7.66258 72.8751 5.84201 75.2357 5.84201C77.4882 5.84201 79.0465 7.32315 79.0465 9.49858C79.0465 9.91515 78.9694 10.3934 78.8922 10.6403ZM75.174 7.97115C74.4797 7.97115 73.8625 8.38772 73.8162 9.09744H76.4545V9.08201C76.4237 8.40315 75.8682 7.97115 75.174 7.97115Z" fill="white"/>
<path d="M61.7734 17.0586V6.02715H64.242V7.10715C64.9054 6.08887 66.0008 5.84201 66.6488 5.84201C68.6237 5.84201 70.3517 7.52373 70.3517 9.9923C70.3517 12.3529 68.8397 14.158 66.618 14.158C65.862 14.158 64.9671 13.942 64.458 13.2014V17.0586H61.7734ZM64.3962 10.0232C64.3962 11.134 65.106 11.8129 66.0471 11.8129C66.9265 11.8129 67.6517 11.1186 67.6517 10.0232C67.6517 8.9123 66.9265 8.18715 66.0471 8.18715C65.106 8.18715 64.3962 8.89687 64.3962 10.0232Z" fill="white"/>
<path d="M51.785 9.9923C51.785 7.64715 53.5747 5.84201 56.105 5.84201C58.6352 5.84201 60.425 7.64715 60.425 9.9923C60.425 12.3374 58.6352 14.158 56.105 14.158C53.5747 14.158 51.785 12.3374 51.785 9.9923ZM54.5004 9.9923C54.5004 11.134 55.2101 11.8129 56.105 11.8129C56.9998 11.8129 57.725 11.134 57.725 9.9923C57.725 8.85058 56.9998 8.18715 56.105 8.18715C55.2101 8.18715 54.5004 8.85058 54.5004 9.9923Z" fill="white"/>
<path d="M45.7226 8.11V6.02714H46.818V3.88257H49.4255V6.02714H51.1072V8.11H49.4255V10.8409C49.4255 11.5197 49.7958 11.8129 50.2895 11.8129C50.6135 11.8129 50.9992 11.7511 51.3232 11.5197V13.7877C50.9066 13.9883 50.2895 14.158 49.518 14.158C47.8055 14.158 46.7409 13.1243 46.7409 11.2883V8.11H45.7226Z" fill="white"/>
<path d="M36.6427 9.9923C36.6427 7.64715 38.4324 5.84201 40.9627 5.84201C43.4929 5.84201 45.2827 7.64715 45.2827 9.9923C45.2827 12.3374 43.4929 14.158 40.9627 14.158C38.4324 14.158 36.6427 12.3374 36.6427 9.9923ZM39.3581 9.9923C39.3581 11.134 40.0678 11.8129 40.9627 11.8129C41.8575 11.8129 42.5827 11.134 42.5827 9.9923C42.5827 8.85058 41.8575 8.18715 40.9627 8.18715C40.0678 8.18715 39.3581 8.85058 39.3581 9.9923Z" fill="white"/>
<path d="M32.6079 14.158C31.1267 14.158 29.7998 13.51 29.1364 12.3374L30.849 11.026C31.2193 11.6586 31.8364 12.1523 32.6387 12.1523C33.1633 12.1523 33.4718 11.9826 33.4718 11.7049C33.4718 11.2883 32.9164 11.1494 31.8364 10.7637C30.2781 10.2083 29.3987 9.5603 29.3987 8.29515C29.3987 6.70601 30.8953 5.84201 32.685 5.84201C34.0273 5.84201 35.1999 6.50544 35.6936 7.44658L34.0273 8.65001C33.765 8.20258 33.3484 7.84772 32.6079 7.84772C32.2067 7.84772 31.8364 8.01744 31.8364 8.31058C31.8364 8.60372 32.2993 8.6963 33.441 9.15915C34.6753 9.6683 35.9096 10.0694 35.9096 11.6432C35.9096 13.0472 34.5981 14.158 32.6079 14.158Z" fill="white"/>
<path d="M25 13.9729V2.94144H27.7V13.9729H25Z" fill="white"/>
<line x1="113.072" y1="-2.18557e-08" x2="113.072" y2="18" stroke="#F3F4F6"/>
<path d="M126.319 12.4086L126.347 13.829H125.437L125.238 12.7498C124.797 13.5168 123.943 14 122.905 14C121.496 14 120.572 13.1904 120.572 11.9545C120.572 10.9746 121.354 10.1792 122.563 9.96567L124.754 9.56764C124.996 9.52507 125.181 9.34059 125.181 9.11285C125.181 8.21814 124.569 7.57886 123.701 7.57886C122.791 7.57886 122.108 8.23233 122.051 9.22638L120.799 9.08447C120.941 7.60724 122.122 6.55643 123.645 6.55643C125.167 6.55643 126.319 7.64982 126.319 9.17029V12.4086H126.319ZM125.181 10.4347C125.053 10.463 124.896 10.5056 124.725 10.534L122.847 10.8753C122.221 10.9888 121.823 11.3868 121.823 11.8977C121.823 12.4944 122.335 12.8917 123.131 12.8917C124.326 12.8917 125.18 12.068 125.18 10.9313V10.434L125.181 10.4347ZM127.69 13.829H128.828V6.72739H127.69V13.8297V13.829ZM128.259 4C127.746 4 127.377 4.38384 127.377 4.90891C127.377 5.43398 127.746 5.81781 128.259 5.81781C128.771 5.81781 129.141 5.43465 129.141 4.90891C129.141 4.38316 128.771 4 128.259 4ZM136.908 12.4086L136.936 13.829H135.969L135.826 12.6072C135.229 13.4736 134.305 13.9993 133.181 13.9993C131.246 13.9993 129.852 12.4369 129.852 10.2495C129.852 8.06203 131.232 6.55643 133.152 6.55643C134.248 6.55643 135.172 7.06798 135.77 7.89174V4.17029H136.908V12.4086H136.908ZM135.798 10.2785C135.798 8.75875 134.802 7.66468 133.422 7.66468C132.043 7.66468 131.047 8.75807 131.047 10.2785C131.047 11.799 132.043 12.8634 133.422 12.8634C134.802 12.8634 135.798 11.7842 135.798 10.2785ZM148.856 6.55643C147.803 6.55643 146.864 7.09636 146.48 7.94851L146.352 6.72672H145.385V13.829H146.523V9.96567C146.523 8.64454 147.433 7.69307 148.628 7.69307C149.709 7.69307 150.478 8.48844 150.478 9.62508V13.8297H151.616V9.51155C151.616 7.80727 150.464 6.5571 148.856 6.5571V6.55643Z" fill="white"/>
<path d="M141.514 6.55643C140.462 6.55643 139.523 7.09636 139.139 7.94851L139.011 6.72672H138.043V13.829H139.181V9.96567C139.181 8.64454 140.092 7.69307 141.287 7.69307C142.368 7.69307 143.136 8.48844 143.136 9.62508V13.8297H144.274V9.51155C144.274 7.80727 143.122 6.5571 141.514 6.5571V6.55643Z" fill="white"/>
<defs>
<clipPath id="clip0_655_10640">
<rect width="16" height="16" fill="white" transform="translate(1 1)"/>
</clipPath>
</defs>
</svg>
